<svg height="448pt" viewBox="0 -6 448 448" width="448pt" xmlns="http://www.w3.org/2000/svg"><path d="m158.34375 214.878906c3.125-3.121094 8.1875-3.121094 11.3125 0l55.6875 55.6875 222.65625-126.566406v-144l-218.34375 218.3125c-3.125 3.121094-8.1875 3.121094-11.3125 0l-54.34375-54.34375-110.34375 110.34375c-3.125 3.121094-8.1875 3.121094-11.3125 0l-42.34375-42.34375v204.6875h448v-274.25l-220.046875 125.082031c-3.128906 1.773438-7.054687 1.246094-9.601563-1.296875l-54.351562-54.335937-110.34375 110.335937c-3.140625 3.03125-8.128906 2.988282-11.214844-.097656-3.085937-3.085938-3.128906-8.074219-.097656-11.214844zm113.65625 189.777344h32c4.417969 0 8 3.582031 8 8s-3.582031 8-8 8h-32c-4.417969 0-8-3.582031-8-8s3.582031-8 8-8zm-64 0h32c4.417969 0 8 3.582031 8 8s-3.582031 8-8 8h-32c-4.417969 0-8-3.582031-8-8s3.582031-8 8-8zm-64 0h32c4.417969 0 8 3.582031 8 8s-3.582031 8-8 8h-32c-4.417969 0-8-3.582031-8-8s3.582031-8 8-8zm0 0"/></svg>