<?xml version="1.0" encoding="iso-8859-1"?>
<!-- Generator: Adobe Illustrator 19.0.0, SVG Export Plug-In . SVG Version: 6.00 Build 0)  -->
<svg version="1.1" id="Capa_1" xmlns="http://www.w3.org/2000/svg" xmlns:xlink="http://www.w3.org/1999/xlink" x="0px" y="0px"
	 viewBox="0 0 512 512" style="enable-background:new 0 0 512 512;" xml:space="preserve">
<g>
	<g>
		<polygon points="121,294.789 121,496 181,496 181,234.789 		"/>
	</g>
</g>
<g>
	<g>
		<polygon points="211,234.789 211,496 271,496 271,294.789 		"/>
	</g>
</g>
<g>
	<g>
		<polygon points="301,294.789 301,496 361,496 361,234.789 		"/>
	</g>
</g>
<g>
	<g>
		<path d="M456.395,140.395L391,204.789V496h76c8.291,0,15-6.709,15-15V151C482,137.721,465.861,130.928,456.395,140.395z"/>
	</g>
</g>
<g>
	<g>
		<path d="M4.395,410.395C1.582,413.207,0,417.016,0,421v60c0,8.291,6.709,15,15,15h76V324.789L4.395,410.395z"/>
	</g>
</g>
<g>
	<g>
		<path d="M497,16h-60c-8.291,0-15,6.709-15,15s6.709,15,15,15h28.931L286,224.931l-79.395-79.395
			c-5.859-5.859-15.352-5.859-21.211,0l-181,180c-5.859,5.859-5.859,15.352,0,21.211c5.859,5.859,15.352,5.859,21.211,0L196,177.353
			l79.395,79.395c5.859,5.859,15.352,5.859,21.211,0L482,72.353V91c0,8.291,6.709,15,15,15c8.291,0,15-6.709,15-15V31
			C512,22.709,505.291,16,497,16z"/>
	</g>
</g>
<g>
</g>
<g>
</g>
<g>
</g>
<g>
</g>
<g>
</g>
<g>
</g>
<g>
</g>
<g>
</g>
<g>
</g>
<g>
</g>
<g>
</g>
<g>
</g>
<g>
</g>
<g>
</g>
<g>
</g>
</svg>
