<svg id="Capa_1" enable-background="new 0 0 512 512" height="512" viewBox="0 0 512 512" width="512" xmlns="http://www.w3.org/2000/svg"><g><path d="m512 183.702c0-95.56-74.92-173.63-169.21-178.67-61.8-3.26-121.08 26.42-156.13 75.95 28.616 1.014 56.916 8.065 82.66 20.602 96.963 47.221 144.66 164.316 103.98 265.038l114.26 34.51-41.94-78.36c40.49-32.79 66.38-82.9 66.38-139.07z"/><path d="m179.08 110.852c-96.51 0-179.08 82.378-179.08 178.92 0 29.469 7.53 58.775 21.537 84.688 11.517 21.305 27.329 38.465 45.013 54.722l-41.76 78.03 132.08-39.9c104.37 11.739 201.32-71.407 201.32-177.54 0-96.717-82.394-179.024-179.11-178.92z"/></g></svg>