<svg id="Layer_1" data-name="Layer 1" xmlns="http://www.w3.org/2000/svg" viewBox="0 0 326.34 280.68"><defs><style>.cls-1{fill:#154987;}.cls-2{fill:#67c4a7;}.cls-3{fill:#229fd9;}</style></defs><title>SymMeet-Logo-2.1</title><path class="cls-1" d="M260,431.72c-1.2-.41-2.38-.83-3.56-1.27A118.09,118.09,0,0,1,185,355a40.14,40.14,0,0,0-2.38-61.13,118,118,0,0,1,55.19-75.45A176.89,176.89,0,0,0,260,431.72Z" transform="translate(-122.24 -157.84)"/><path class="cls-2" d="M389.74,247.84c-3.34-.68-6.74-1.22-10.18-1.61A117.83,117.83,0,0,0,274.91,437.7h0A176.86,176.86,0,0,1,254,213c1.08-.44,2.18-.87,3.27-1.28a116.72,116.72,0,0,1,22.36-5.89,40.13,40.13,0,0,0,72.1,11.26A118.07,118.07,0,0,1,389.74,247.84Z" transform="translate(-122.24 -157.84)"/><path class="cls-2" d="M276.64,438.52h-2.07l-.25-.24a177.69,177.69,0,0,1-21-225.7l.14-.2.22-.09c1.1-.46,2.2-.89,3.31-1.3a117.46,117.46,0,0,1,22.51-5.94l.72-.11.2.7a39.31,39.31,0,0,0,70.63,11l.4-.61.65.33a118.12,118.12,0,0,1,38.3,30.92l1.45,1.78-2.25-.46c-3.37-.68-6.77-1.22-10.11-1.59A117,117,0,0,0,275.55,437.18ZM254.51,213.71a176.08,176.08,0,0,0,11.76,213.46A118.67,118.67,0,0,1,379.65,245.41c2.64.3,5.32.7,8,1.19A116.1,116.1,0,0,0,352,218.2a41,41,0,0,1-73-11.41,115.85,115.85,0,0,0-21.48,5.74C256.53,212.91,255.52,213.3,254.51,213.71Z" transform="translate(-122.24 -157.84)"/><path class="cls-3" d="M417.1,319.87c0,1.93-.05,3.86-.15,5.77a40.61,40.61,0,0,0-4.95-.31,40.13,40.13,0,0,0-24.13,72.2,117.5,117.5,0,0,1-88.59,40.17c-3.29,0-6.53-.14-9.75-.41-2.31-.19-4.62-.44-6.89-.77A117.81,117.81,0,0,1,392,251.2c1.14.12,2.27.27,3.38.44q1.41,2,2.75,4a117.53,117.53,0,0,1,19,64.21Z" transform="translate(-122.24 -157.84)"/><circle class="cls-3" cx="291.5" cy="208.38" r="34.84"/><circle class="cls-2" cx="196.03" cy="34.84" r="34.84"/><circle class="cls-1" cx="34.84" cy="167.23" r="34.84"/></svg>